<mxfile host="Electron" modified="2024-05-22T13:35:34.690Z" agent="Mozilla/5.0 (Windows NT 10.0; Win64; x64) AppleWebKit/537.36 (KHTML, like Gecko) draw.io/24.4.0 Chrome/120.0.6099.109 Electron/28.1.0 Safari/537.36" etag="62xPv-SVsHKR9V5xTIDQ" version="24.4.0" type="device">
  <diagram name="Page-1" id="rYKTv94eitOYdG_X_CTr">
    <mxGraphModel dx="805" dy="529" grid="1" gridSize="10" guides="1" tooltips="1" connect="1" arrows="1" fold="1" page="1" pageScale="1" pageWidth="850" pageHeight="1100" math="0" shadow="0">
      <root>
        <mxCell id="0" />
        <mxCell id="1" parent="0" />
        <mxCell id="TPXWJFAmSgLl3qk7VcIr-18" value="&#xa;&lt;div&gt;&lt;span data-canva-clipboard=&quot;ewAiAGEAIgA6ADUALAAiAGgAIgA6ACIAdwB3AHcALgBjAGEAbgB2AGEALgBjAG8AbQAiACwAIgBjACIAOgAiAEQAQQBHAEYAMwA5AEkAaQBuAHUAbwAiACwAIgBpACIAOgAiAEEASwBDAEgAZwBtAHYAagA4ADEATQBCAFAANwBiADkAZQB4ADIARQB2AEEAIgAsACIAYgAiADoAMQA3ADEANgAzADgAMQA2ADkAMQA4ADMANQAsACIAQQA/ACIAOgAiAEIAIgAsACIAQQAiADoAWwB7ACIAQQAiADoAMwAwADAANwAuADMAMQAxADQAMAA5ADQAMwAyADkAMQA4ADUALAAiAEIAIgA6ADUANgAyADQALgA1ADIAOQAzADkAOQA3ADgAMwA5ADUAMgAsACIARAAiADoAMQAyADMANwAuADIAOAAyADIAMAA1ADkAOQA2ADQANgAyADgALAAiAEMAIgA6ADMAOQA5AC4AMwAzADEAMgA2ADMANwA2ADkANQAzADEAMgAzACwAIgBOACIAOgAiAHMAdQBiAHQAaQB0AGwAZQAiACwAIgBBAD8AIgA6ACIASwAiACwAIgBhACIAOgB7ACIAQQAiADoAWwB7ACIAQQA/ACIAOgAiAEEAIgAsACIAQQAiADoAIgBTAGkAdgBhAHIAYQBuAGoAYQBuAFwAbgAiAH0AXQAsACIAQgAiADoAWwB7ACIAQQA/ACIAOgAiAEEAIgAsACIAQQAiADoAewAiAGYAbwBuAHQALQBmAGEAbQBpAGwAeQAiADoAewAiAEIAIgA6ACIAWQBBAEUARQBLAEoAVgBXAHoAegB3ACwAMAAiAH0ALAAiAGYAbwBuAHQALQBzAGkAegBlACIAOgB7ACIAQgAiADoAIgAzADMAMwAuADMAMwAzACIAfQAsACIAdABlAHgAdAAtAGEAbABpAGcAbgAiADoAewAiAEIAIgA6ACIAYwBlAG4AdABlAHIAIgB9AH0AfQAsAHsAIgBBAD8AIgA6ACIAQgAiACwAIgBBACIAOgAxADAAfQAsAHsAIgBBAD8AIgA6ACIAQQAiACwAIgBBACIAOgB7ACIAdABlAHgAdAAtAHQAcgBhAG4AcwBmAG8AcgBtACIAOgB7ACIAQgAiADoAIgBuAG8AbgBlACIAfQAsACIAbABlAGEAZABpAG4AZwAiADoAewAiAEIAIgA6ACIAMQA0ADAAMAAuADAAIgB9ACwAIgB0AHIAYQBjAGsAaQBuAGcAIgA6AHsAIgBCACIAOgAiADAALgAwACIAfQAsACIAcwBwAGEAYwBpAG4AZwAiADoAewAiAEIAIgA6ACIAMAAuADAAIgB9AH0AfQAsAHsAIgBBAD8AIgA6ACIAQgAiACwAIgBBACIAOgAxAH0ALAB7ACIAQQA/ACIAOgAiAEEAIgAsACIAQQAiADoAewAiAGYAbwBuAHQALQBzAGkAegBlACIAOgB7AH0ALAAiAHQAZQB4AHQALQB0AHIAYQBuAHMAZgBvAHIAbQAiADoAewB9ACwAIgBzAHAAYQBjAGkAbgBnACIAOgB7AH0ALAAiAGwAZQBhAGQAaQBuAGcAIgA6AHsAfQAsACIAdABlAHgAdAAtAGEAbABpAGcAbgAiADoAewB9ACwAIgB0AHIAYQBjAGsAaQBuAGcAIgA6AHsAfQAsACIAZgBvAG4AdAAtAGYAYQBtAGkAbAB5ACIAOgB7AH0AfQB9AF0AfQAsACIAYgAiADoAewB9ACwAIgBkACIAOgAiAEEAIgAsACIAZwAiADoAZgBhAGwAcwBlACwAIgBoACIAOgAiAEEAIgB9AF0ALAAiAEIAIgA6ADYAOQAxADIALAAiAEMAIgA6ADMANAA1ADYAfQA=&quot;&gt;&lt;/span&gt;&lt;p&gt;Sivaranjan&lt;/p&gt;&lt;/div&gt;&#xa;&#xa;" style="rounded=1;whiteSpace=wrap;html=1;labelBackgroundColor=none;fillColor=#182E3E;strokeColor=#000000;fontColor=#FFFFFF;" vertex="1" parent="1">
          <mxGeometry x="10" y="100" width="730" height="300" as="geometry" />
        </mxCell>
        <mxCell id="TPXWJFAmSgLl3qk7VcIr-15" value="" style="edgeStyle=orthogonalEdgeStyle;rounded=0;orthogonalLoop=1;jettySize=auto;html=1;shadow=1;flowAnimation=1;labelBackgroundColor=none;strokeColor=#FFFFFF;fontColor=default;" edge="1" parent="1" source="TPXWJFAmSgLl3qk7VcIr-1" target="TPXWJFAmSgLl3qk7VcIr-4">
          <mxGeometry relative="1" as="geometry" />
        </mxCell>
        <mxCell id="TPXWJFAmSgLl3qk7VcIr-1" value="" style="shape=image;verticalLabelPosition=bottom;labelBackgroundColor=none;verticalAlign=top;aspect=fixed;imageAspect=0;image=data:image/png,iVBORw0KGgoAAAANSUhEUgAAAOEAAADhCAMAAAAJbSJIAAAAvVBMVEX///9cTuVAQLJZS+UrK61NPePp5/s6OrB4eMTm5vSIgOtRQeRXSORMO+NSQuRUReTu7fzZ1vg4OLDT0Pf4+P4xMa6dlu66tfNoXOeBeOp9c+rDv/RzaOhJN+Pz8v1fX7yFhcq8uPOnofDKyue0r/KVje0lJayim+9uYufNyfZ5bunl4/qbm9Nra7/f3fnCwuORiexhVOaqqtlLS7aRkc+1td7U1OxGRrUWFqk7JuJWVrlzc8OwsNyOjs3f3/BxyrB6AAAE10lEQVR4nO2c2VrbPBCGJS8YEsemJgYCTUpZS8taSuny/9z/ZVVOHcd2JC9NXFnT7z2AE55k3iceNBqNwhgAAAAAAAAAAAAAAAAAAAAAAAAAAAAAAAAAAKABBzPdEXTNxD3QHULHDPzh4Z7uIDpl4HPbnWzpDqNDhCHnvnulO47umBtyHgbvdUfSFakh5+6HN7pj6YbMkNvTwa7uaLpgaZik46nucDogb8h5wK91B7RxioZi5fj4SXdIG6ZkKB7V0cVYd1AbZcVQrBxDUoWcxJBzUoWc1JDboyMyhZzcMFk59nWHtiFUhiIdQxqFnNpQpCOJQq7KUKQjgUKu0pBEIVdjmKSj4Z2cWkM+MnzdqDd0N2r49yvChobh8Wbe7uZ2M6/TgoaGvvv2bv03u39xttd/lZY0NLS5PX1Y81/O6zvH8npsKFaO4fkabzQ+cTyr54acB49/3AL4HEeW1X9DbrtHf9QCOHuKLcsIw6QFsN/6H/7ObfKAmmKYtADa7TnGXzI/QwyTFkCLPcezF1mWaYZizzFpuOf4+sOxLAMNm+45Ztu5B9QwQ5GOdm0hd+NElmWuoVg5qgu5eysu+xlmmKSjupBLSjQJhhkmK4e8kJudlBPQVEOxcsgKubREo2GYFHKlLfLZiyQB9RnuT9XBNzIsN49zJVo/DNmbD+6ahvkpgPGXywo/PYaMvffDNQ2z5vFzpEpArYaMXbkV2djIUKSj+Kudb9V++gzZ7sRVOjQz5HZiKF0De2HI2N7hkLghYwehPB3pGLLx/lSWjoQMGds6kqQjKUPGrv2AuCFjp8PSo0rOkO0ORgUfeoaM3RUKOYqGjB3nCjmahiIdR9ngKVFDkY7pykHWMCvkCBuKQi5JR9KG80KOtqEo5CbfiRuKQi45oiBtOIe+oboF0M4w+qnbRMXeo6oF0Mow/vFVt4mac0ULoIVh7D3rtqhkdjGqelRrDaPLG90KtXz6WJGONYae83NHd/yVpDMm1/ZKC6CZYfzU4wScM11cM1lpATQxjKL/tEbfBDv002sms4E8HdWGnvO/Abdw7Nw1kzvpWY7K0HNu+52AKcnHtrwvfCw5y1EYxk9nWgNvzO8H0x8t7gsvWwCVhlH8WWfUbVikXuinMyYrZzkSQ885MSABU5Y22X3h0lnOqqHz7lVrzO3IfV7LayaFs5yyYfxyrzXithSeSH+Yjnzlz3KKhiaUaEVKS2BgpzMmy7OcvKHnbJuTgCnlRX55X/j6MSgbmpWAKatljD29SEe+zoMwbxhbZiVgiqxQC4N05Gv2IAq51DByTEvAFPmuKRv5unvr+uLXzuXltqn3wBT7wuXI1zEXP15f+r5HUqPc+Waz+2Om49rW5qjoXxD54pfKZmKr2f2+Ut0ubT6731/qGsLm3xeub3kHukNck2bnFiYDQxj2HxjCsP/AEIb9B4Yw7D8whGH/gaH5hqoZEzqG5Wsm9Azr7wubb1h3X5iCYfV9YRqGbGuiTEcihhX3hckYLg61KRuy8cXKyBcxQ/mwMC3D5YwJXcMkHX3ihmz2UPjiF4KG8xkT4oaFYWGihoydLgo5sobZvoquodhXHbrEDcW+KgyJG7Lx1TTUHUPXbB3pjgAAAAAAAAAAAAAAAAAAAAAAAAAAAAAAAAAA/FP8AteLT/xjvhx7AAAAAElFTkSuQmCC;fillColor=#182E3E;strokeColor=#FFFFFF;fontColor=#FFFFFF;" vertex="1" parent="1">
          <mxGeometry x="170" y="176" width="110" height="110" as="geometry" />
        </mxCell>
        <mxCell id="TPXWJFAmSgLl3qk7VcIr-14" value="" style="edgeStyle=orthogonalEdgeStyle;rounded=0;orthogonalLoop=1;jettySize=auto;html=1;shadow=1;flowAnimation=1;labelBackgroundColor=none;strokeColor=#FFFFFF;fontColor=default;" edge="1" parent="1" source="TPXWJFAmSgLl3qk7VcIr-3" target="TPXWJFAmSgLl3qk7VcIr-1">
          <mxGeometry relative="1" as="geometry" />
        </mxCell>
        <mxCell id="TPXWJFAmSgLl3qk7VcIr-3" value="" style="image;aspect=fixed;html=1;points=[];align=center;fontSize=12;image=img/lib/azure2/general/Folder_Blank.svg;labelBackgroundColor=none;fillColor=#182E3E;strokeColor=#FFFFFF;fontColor=#FFFFFF;" vertex="1" parent="1">
          <mxGeometry x="45.5" y="203" width="69" height="56.00000000000001" as="geometry" />
        </mxCell>
        <mxCell id="TPXWJFAmSgLl3qk7VcIr-16" value="" style="edgeStyle=orthogonalEdgeStyle;rounded=0;orthogonalLoop=1;jettySize=auto;html=1;shadow=1;flowAnimation=1;labelBackgroundColor=none;strokeColor=#FFFFFF;fontColor=default;" edge="1" parent="1" source="TPXWJFAmSgLl3qk7VcIr-4" target="TPXWJFAmSgLl3qk7VcIr-5">
          <mxGeometry relative="1" as="geometry" />
        </mxCell>
        <mxCell id="TPXWJFAmSgLl3qk7VcIr-4" value="" style="whiteSpace=wrap;html=1;shape=mxgraph.basic.document;labelBackgroundColor=none;fillColor=#182E3E;strokeColor=#FFFFFF;fontColor=#FFFFFF;" vertex="1" parent="1">
          <mxGeometry x="350" y="200" width="55" height="63" as="geometry" />
        </mxCell>
        <mxCell id="TPXWJFAmSgLl3qk7VcIr-17" value="" style="edgeStyle=orthogonalEdgeStyle;rounded=0;orthogonalLoop=1;jettySize=auto;html=1;shadow=1;flowAnimation=1;labelBackgroundColor=none;strokeColor=#FFFFFF;fontColor=default;" edge="1" parent="1" source="TPXWJFAmSgLl3qk7VcIr-5" target="TPXWJFAmSgLl3qk7VcIr-7">
          <mxGeometry relative="1" as="geometry" />
        </mxCell>
        <mxCell id="TPXWJFAmSgLl3qk7VcIr-5" value="" style="outlineConnect=0;fontColor=#FFFFFF;fillColor=#3333FF;strokeColor=default;dashed=0;verticalLabelPosition=bottom;verticalAlign=top;align=center;html=1;fontSize=12;fontStyle=0;aspect=fixed;pointerEvents=1;shape=mxgraph.aws4.bucket;labelBackgroundColor=none;gradientColor=#0000FF;" vertex="1" parent="1">
          <mxGeometry x="470" y="192" width="75" height="78" as="geometry" />
        </mxCell>
        <mxCell id="TPXWJFAmSgLl3qk7VcIr-7" value="" style="shape=image;verticalLabelPosition=bottom;labelBackgroundColor=none;verticalAlign=top;aspect=fixed;imageAspect=0;image=data:image/jpeg,/9j/4AAQSkZJRgABAQAAAQABAAD/2wCEAAkGBxANEg4PDg4VFhUVFRcXFRUVFRUWDw8WGBUYGBgYFRUYHighGB0lGxkXITIjJSktLi4wFx8zODMtNyguLisBCgoKDg0OGxAQGy0mICUvMC0rLS8tLSstLSstLS0tLystLS0vLS4tLS0vLS0tLS0vLS0tLy0tLS0tLS0vLS0tLf/AABEIAOEA4QMBEQACEQEDEQH/xAAcAAACAwEBAQEAAAAAAAAAAAAAAgEGBwUEAwj/xABJEAABAwIACQYJCAkEAwAAAAABAAIDBBEFBgcSITFBUXETImGBkaEUMkJSYpKxwdEWI1RygrLC0iQzNENTY3Oi4RUXo8OTs/D/xAAbAQACAwEBAQAAAAAAAAAAAAAAAQQFBgIDB//EADoRAAEDAgIGBwgBBAIDAAAAAAABAgMEEQUxEhMhQVHRYXGBkaGxwRQVIjIzQlLh8AYjNHJT8SRDYv/aAAwDAQACEQMRAD8A3FAAgAQAIAEACABAAgAQAIAgm2koBVseCow3SxeNUM4A5xHU267SNy7iFJiNLH80id9/I8EuN9I3U57uDT77LvUPIb8eo25Kq9nOx8DjrT7IpOxv5k/Z3Edf6jp9zXeHMBjpBtik7G/mRqHAn9SU+9rvDmfeLG6ldrz28W/AlcrC49Wf1BRuzunWnK57oMO0snizt+0c371lysbk3EyPFaOTKRO3Z52Og1wcLggjeNIXBPRyKl0JQMEACABAAgAQAIAEACABAAgAQAIAEACABAAgAQAIA5OFMYqaluHyZzh5DOc7r2DrXqyF78kIFVidPT7HOuvBNq/rtKrX47TPuIWNjG885/foHYpTaVqfNtM/UY/M/ZEiNTvXl4HAqq+WfTLK53EkjqGoL3RjW5IUs1TNMv8Accq9p8QUEckFKwhgUhEgpCGBSESCkI+9PVPiN43uafRJHsXCtRcz1inkiW8blTqWx3KHGyePRIBIOnmu7R8F5OhTcXFP/UNTHsks5O5e9ORZMHYx089hnZjvNfovwdqK8XRuQ0dJjVLUbL6K8F2eOXqddcFsCABAAgAQAIAEACABAAgAQAIAEACABAHgwtheGjbnTPsfJaNL38B79S9I4nSLZpFqqyKmbpSL1JvXqKDhrG2epu2M8nHuaee76zvcO9WEdK1m1dqmVrMYmn+Fnwt6M+1eRwAVIsU4wK5ESCkIYFIRIKQhgUhEgpCGBXNhEgpCGBSESClYQwKQjrYKw/NTWAdnM8x2ofVOsezoXk6NFLShxeopbIi3bwX0Xd5dBdMFYZiqhzDZ21h8YcN4UdzFabOhxOCrT4Fs7guf7OiuSwBAAgAQAIAEACABAAgAQAIAEAVjGfGxlJeKGz5dvmRfW3no7emXBSrJ8TsioxDFW0/wM2u8E6+RnVVVPmcZJXlzjrJ1/wCB0KzaxGpZDIyyvldpPW6nzBTPIYFc2EMCkIkFKwhgUhEgpCGBXIiQUhDApCJBSEMCkIkFIQwK5ESCkI+kchaQ5pII1EGxHApKlxtc5jkc1bKhccAYzCS0VQQHag/U13Q7ce5Rnx22obDC8dSS0VRsXc7cvXwXwLOvI0wIAEACABAAgAQAIAEACAKbjljXyOdTUzufqe8fuuhvpezjqn0tLpfG/IosTxPVXii+bevD9+RnudfSVZ2Msu3aSCkIkFI5GBSAkFKwhgUhEgrmwhgUhEgpCGBSEMCkIkFKwhgVyIkFKwhgUhEgpCGBSsIkFciLVizjDm5sE7tGpjz5PQ7o6dns8JI96GowbGVaqQTrs3Lw6F6Ond5XFeBrwQAIAEACABAAgAQBVsdsZPA2cjCfnnjX/Cbv4nZ28ZtJTaxdJ2SeJU4nX6hugz5l8E48jMM6+kq4sZFdpIKQhgUhEgpCGBSESCuRDApCJBSEMCkIkFIQwKQiQVzYQwKQhgUhEgpCJBSsIYFciGBSESClYQwKQi5YpYbz7U8p0jxHHyh5p6dyjSsttQ2GBYppolPKu37V49HItK8TTggAQAIAEACAOdh/CzKGF8z9JGhjfPedQ9/AFesESyvRqEeqqG08SvXs6VMaq6t873yyOu5xuT/9s2LQtYjWo1MjEyyOker3ZqfIFM8hgUhEgpCGBXIiQUhDApWEfSJjnkNY0knUACSeAC5WybVG1iuWzUupY8HYl1U1jJaIelpf6o95Civq2Ny2ltBglRJtf8KdOfcWClxEgbblJZHHos1p6rE96jOrHLkhZx4BAnzuVfD+d572Yo0I/ck8Xye4ry9pk4kpMGo/w8V5kuxSoT+4twfJ+ZHtMnEFwaj/AA8V5njqMSKd18x8jTxDm9hF+9dJVP3kaT+n6d3yqqeP87zi12JdRHcxObIN3iv7Do717NqmrnsKuowCdm2NUd4Ly8SvTwPicWSMLXDY4EHvUhFRUuhSSRPjdovRUXpFBQeRIK5sIYFIRIKQhgUhEgpAOx5BBBsRpBGsHoXKoCKrVumZo+L2FRVxAnx26Hjp2Hgfiob2aKn0LCq9KuG6/MmxefadRcFmCABAAgAQBkuPmG/C6gxsPzcJLRuc7yndugcOlX1FBq49Jc1MnitVrpdFMm+e8rYKmWKskFIQwK5sIkFIQwKQiQUhFkxcxUlrLSPvHF5xHOf9Qe86OKiT1TY9ibVLShwqSo+J2xvn1czRMFYIgo25sMYG9x0vdxd7tSqpJXyLdymop6SKnS0aW6d/eeiWrjY5kbngPd4rb893Buu3SuUaqpe2w9XSsa5Gqu1ck3n3XJ6Hlpq+OWSaJjrmLNz7agXX0X2kW0rtzFaiKu88Y6hkj3Mau1tr9oV9fHThhldYOeGA7ASCRfcNGtDGK69gnqGQoivWyKtj1Lg9j4+Fx5/JZ4z7XzSbOI3gHWOCeitr7jz1zNPV328N4ldQxVDcyaMOHTrHA6x1JterVuhzPTxTt0ZG3Qo+HsU3wXkp7vZtH7xg/EOH+VNiqEdscZTEMEfDd8O1vDenMrQKkFAMCkIkFIQwK5sIkFIQwKQjpYBwkaWVr/JOh49E7eI1rzkZpIT8MrVpJ0f9q7F6v1maWDexChH0VFul0JQMEACAOJjjhbwKlle02e7mR7w520cBc9Sk0kOtlRFyzUh19RqYVcmeSdZjAK0hjSQVyIYFIRIKQhgUhDApCLpiXipy+bU1TeZrYw/vPSd6PRt4a62rqtH4GZ71LzDMM1lpZU2bk49K9Hn1Z6DNKyJpe9wa1o0k6GtCq0RXLZDSuc1jbu2IhQcP48PkvHR3Y3VyhHzjvqjyR38FZw0SJtf3Garcac74YNicd/Zw8+o9mTugLuVrJSS5xzGlxJcdrnXOvYL9BXnWvRLRoe+CQKulUP2quxPVTuY24X8Dgc5p57+azoJ1u6h32Uani1j7LkWGJ1fs8Cqma7E59hw8mhv4WTvj4nx1Irvt7Ss/p9b6xV6PU92UT9mZ/Vb91686P6nYSMe/xk/2TyUbEXC5qIjC83fFaxOtzDq7NXYlVRaLrpko8FrFmi1bl2t8t3InHvB3KQidvjRG9xrzDr7DY9RRSvs7RXeGN02sh1rc2+X82lfwHjhLBZk95Gb/AN63gT43X2r3lpWu2t2KVFFjUsPwy/E3xTn295f6KsjqGCSJ4c07Rs6CNh6FAc1WrZTWQzMmYj41uhV8a8WQ7OqKZvO1vYPL3uaN/Rt465ME9vhcUGLYQjkWaFNu9OPSnT0b+vOkAqYZMkFIQwKQiQUhDApCJBSEaBibhDloeTcedHzeLfJ946lCmbZ1zc4DV66n0FzZs7N3LsO+vIvAQAIAy3KhhLlKiOnadETbn679Pc3N7Sr3DIrRq/j5IZvGJtKRI03ealNBViUxIKVhDApCJBSEMCubCLLiTgDw2XPkHzUZBdukdsZ7z0cVDrKjVNsmalnhlFr5NJ3yp49HM1SeZkLHPeQ1rRcnUGgKjRFctkzNY5zWNuuxEMoxoxkfXvsLtiaeYzzvSd0+zvN5T0yRJ0mOxCvdUusmxqZJ6qcRoJIAGk6hvUhSuRFVbIbXgiiFNDDCPIaAek63HrNys7K/TerjfU0KQxNjTchnWPuEeXqXRg82IZo3Z2tx7bD7KtaOPRjvxMrjM+sqNFMm7O3fy7DsZMdVXxj/ABqPX/b2k3+n8pOz1OhlG/Zmf1W/devOi+ovUSMe/wAZP9k8lKZixhDwaphffmk5r92a7Rp4Gx6lNnj02Khn8OqNRUNduXYvUv8ALmszRB7XMcLhwII3gixVOi2W6G5e1HtVq5LsMcracwySRO1scW8bG11dNdpNRT53PEsUjmLuWx7MB4Zkon57NLT47L8149x3FecsSSJZT2oq2SlfpNy3pxNSoK1lTG2WI3a4dYO0HcQqpzVatlN1BOyaNJGLsUpOO2BORd4TEOY488DUxx28D7eKmU0t00VMvjeH6t2vjTYufQvHt8+sqwKlGeGBSESClYQwK5ESClYR28Uq3kahgJ0P5h6/F77dq8Zm3aW2CVGpqkRcnbOXiaMoRvQQBDiACTqHcgDA8K1pqZppj5b3OHQCdA6hYLWxR6DEbwQxU8mskc/ip5gV2eJIKQhgUhEgrkR9IWOe5rGi7nEADaSTYDtXLlREuoNarlREzU27AODG0UEcDdYF3HznnS49vdZZqeVZXq5TbUsCQRIxP4pSMouHeUf4HG7msIMlvKfsbwHt4KyoKeyaxd+RRYxV6TtS3JM+vh2efUUoFWNiiOzilTctV0zTqD84/YBd7rdajVTtGJykzDotZUsTpv3bTX6iYRse92prS48ALlULUutjaPcjWq5dxh80xkc97tbiXHiTcrRI2yWPn0jle5XLv2l6yYaqvjH+NVuIfb2+hocAyk7PU6GUf9lZ/Wb9168qH6i9RIx3/HT/AGTyUzcFWtjImx4Cq+Xp6eUnS5gv9YaHd4KopW6L1Q39HLrYGP4p47yhY+03J1bnD94xrui/in7verGkdeO3AyuNxaFVpcURfT0K6CpBTljxNwz4NKI3n5uQgHcx2oO6Nx/wotTFptumaFvg9bqJdB3yu8F3Lz/RotXTNmY+J4u1wIP+OlVrXK1bobCWJsrFY7JTJK+ldTySRP1scRx3HrFj1q3a5HNRUPndRA6GV0bs0U+AKDwGBSEMCkIkFIQ7HlpBB0g3HQQuVQGqrVRUzQ1qinEsccg8pod2i6rVSy2PpsEqSxtkTeiL3n2SPU5GNtVyFHVvvY8m5oO4u5o7ypFIzTmanSR6t+hA5egwwFasxxIK5EMCkIkFKwhgUhFsycYP5eq5Rw5sLc7ozjob7z9lV+ISaEVk3lphEGnPpLk3zNYVCak5EmLNE4uc6mYSSSSb3JJuSdK90qZUSyOIq0NOq3ViEfJah+is7/in7VN+SnPsFN+CH3osB0tO7lIYGtdYi4vex1rh88j0s5T0jpIY3aTGointnhbI1zHi7XAhw2EEWIXmiqi3Q9nNRyK1clOX8l6H6Kzv+K9vaZfyIvu+m/BD2YPwZBTZ3IRBmdbOttte3tK83yOf8y3PaGnihvq2olx66hiqWhk0Ye0G4B1XsRfvKTHuYt2qOWGOVNF6XQ8PyZovorO/4r09ol/Ij+7qX8EOjSUrIGiOJoa0XsBqFzc95Xm5yuW6kqONkbdFiWQ+FdgqCpLXTRNeQLAm+gJtkc35VPOalhmVFkainm+TdF9GZ3/Fd6+TiePu2l/40J+TdH9GZ3/FLXycRe7aX/jQ6jRYADYvImolthRcodFmvinA8YZjuI0g9l/VU+kddFaZb+oKez2zJv2L2ZfzoKgCpZmxgUhEgpCGBSESCubCNIxMnz6Vg8wub33HcQoE6WebvA5NOjanC6evqdxeJblSynzZlC4efIxvYc78KscLbee/BFK/FHWp1TiqGQArRmXJBSEMCkIkFIQwKQGoZK6bNp5pSNL5LcWsaLd7nKixR15EbwQ0eDR2iV3FfI92PGMUmD2wciGlz3O8YEjNaBfURtIXjRUzZlXSyQ9sRrHU7W6Ga8Spf7h1vmw+o78ysPdsXT/OwqffM/BO5eZP+4Vb5sPqO/Ml7ui6f52B75qOCdy8y14j4wT4Q8IM4YAzMzcwEXzs697k7goNZTshto7y0w2skqdLTtstl2nsxxwxJQwNliDc4vDecCRYhxOgEbl5UsKSv0XcD1xGpdTxabc722lL/wBwKzzYfUd+ZWPu+LpKT33UcE7l5lqxJw/NX+EcsGDMzLZoI8bOve5O4KDV07YraO8tcMrZKnS07bLZdp6scMLyUMLZYQ25kDecCRYtcdhG4LilibK/RdwPXEqp9NEj2Wve23tKcMfazzYvUd+ZTvYI+ko/flRwb3LzLTiZh6WvE/LBoLC22aCNDs7XcncodVA2JU0d5b4XXPqkdp22WyPTjfhWWihZLCGkmQNOcCRYtcdhG0BcU0TZHWcemJ1UlNEj2Wztt6lKh8u6vzYvVd+ZTfYo+kovftTwb3LzJ+XVX5sXqu/Ml7FH0i9+1PBvcvM7+KGMktbJJHMGCzc5uaCNRsb3J3hRqinbGiK0tMLxKSpe5klsrpY9uO9PylJIbaWFrh22PcSuKZ1pEPbGY9OkcvCy/wA7DMQVaGIGBXIiQUhDApCJBSEXrJ7JeOdu54Pa234VBqk2oprf6cd/ae3pv3p+i2KMaMo2Vx36LAN847o3q2whP7rur1QqsW+inX6KZUCtAZ4kFKwhgUhEgrkQwKQjZMnbLUFOd5kP/I4ewLN4gv8A5DuzyNXhif8AjN7fNSrZVpfn6Zu6MntcR+FTsLT4HL0lZjS/G1OgpAKsykGBXIjSMlTfmqo+m0djf8qmxP5m9Ro8ET+25ek++VE/o8A/nD7j1zhv1F6vU6xv6Dev0UzQFXBlzQcleqs4x/jVViX29voaHAspOz1OhlL/AGWP+s37j144f9RerkSMb/x0/wBk8lMzBVxYyZesl551WOiP2vVZiGTe00OAZydnqdnKE29ITukYfaPeo9F9Um40l6VetDMQVbmOJBSEWPEKS1Ywec147r+5RKxP7ZbYI61UicUU0DGBt6WqH8p57Gkqth+o3rNRXJemk/1XyMhBVzY+fDApCJBSEMCkIkFIRc8nTtNUOiP8ahVe4039N5ydnqXVQzUlFyuj9Fpz/PHfG/4K3wf6rur1Qq8W+knX6KZSCtCZ4kFciGBSsIkFIQwKQjZsnj74PpujlB/yvWZxBLVDuzyQ1WG/4ze3zUqmVdlqindvit2PPxU/Cl/tuTpKzGW/3Gr0FIBVmUowKQjSslLvmqkfzG97f8KlxRPjb1GjwVf7bk6T7ZUx+jwH+d+By4w36i9XqPGvot6/RTMwVdGYNCyVaqzjH+NVGJ/b2+hocCyf2ep0cpn7LH/Wb9x68sP+qvVyPfG/8dOtPJTMQVcGUL3kt8arPRH7XqsxHJvaaDAc5Oz1O1lDdajd0vZ7bqNRfVJ2Mr/4q9aGXgq5McSCkIseITb1kZ3Nef7SPeolZsiUtcGbeqReCKaHh91qaqP8mT7hVXD9RvWhqK3/ABpP9V8jHgVdmAJBSscjApASCubCGBSEXPJyNNUehnteoVXuNL/TibZOz1LuoRqCnZVYc6hzvMlY7he7fxKzwl1qi3FF5lfibbwX4KY6CtMZwYFIRIKVhDApCGBXIjV8lNVn0ssZOmOU9TXNBHfnLP4qy0qO4oaPCX3hVvBR8o2ApqxtM6njz3MLgQC0c1wBvziNre9c4dUMiVyPWyKGJ0r5mtViXVCkfI3CP0R3rx/mVp7dT/l5lN7tqfx8UJ+RuEfojvXj/Ml7dT/l5h7tqfx8ULrk5wRU0fhQqYiwO5MtuWm9s+/ik7wqzEJo5dHQW+foW2FU8sOkkiWva3ie7H7BktXTtZBHnvEjXWBA0ZrgdZG9eNDK2OS7lslj2xOB80OixLrcz/5H4Q+iu9aP8ytvbYPy8yg92VX4+Kcy6ZPMEVFIKrwiIszuTzblpvbPv4pO8Ktr5mSaOgt8/QuMJppYNPWJa9vU9uPmDpqqnZHBGXuErXEAgWAa4X0kbwvOikbHIquW2w9sUgkmhRsaXW/opQvkjhD6KfWj/MrP2yH8vMz/ALrqvw8U5lyyf4HnpBUmoiLC4szblpuBnX1E71X10zJFborcusJpZIEdrEte3qezHqgmqadkdPGXu5QEgECzQ128jaQvOjkYx6q5dx64rBJNCjY0ut/RSijFKv8Aop9aP8ysva4fy8zPe6qv8PFOZIxTr/ox9aP8yXtUP5eYvdVX+HinMs2IuAZ6aWWWoiLOZmtuWm9yCdRO7vUOsnY9qI1S1wihlhkc+RLbLIdnHeo5Ojm06XZrR03cL/23UelbeVCfi0mhSu6dnjyMqBVyYgkFciGBSESCkIYFIRfMnEfMqH73NHYCfxKvrF2ohqv6eZaN7ulE7v8AsuChmiOHjvS8tQVjd0ZePsWf+FS6B+hUMXpt37CNVs0oXJ0eRgwK2FjLDApCJBSEMCubCJBSEXXJZhIRVT4HHRMyw+uy7h/bnqrxWLSiR6bvJf4haYVLoyqxd/mhrSzpojzHCEH8eP12/Fd6t/Be441jOKEf6jB/Hj9dvxRq38F7g1jOKDxVcTzmslY47g4E9gSVjk2qg0e1diKfV7w0EuIAGsnQBxKSJfIarbM+H+oQfx4/Xb8V1q38FOdYzinefSGoZJfMe11teaQbcbLlWqmaDRyOyUaWZrBd7g0aruIAv1oRFXIauRM1Pj/qEP8AHj9dvxXWrfwU51rOKd59opGvGcxwI3ggjtC5VFTM6RUVLoLNUxx2D5GtvqznAX7UI1VyQSva3NT5+Hw/xo/Xb8U9B3BTnWs/JO8nw+H+NH67fijQdwUNaz8k7z7g30j/AAVyehRMpdfpgpwdV5Hd7W/iVlQR5v7DOY9N8sSda+SepRgVYGbGBSsIYFIRIKQhgUhGmYhwZlI13nvc7vzfwqqqlvIbTBI9GlReKqvp6FiUYtxZWB4c1wuCCCN4Ogpoqot0EqX2H5ywhSmnlmhdrje5h6c0kXW4jekjEem9LmTlZoPVvA+IK6PIkFIQwKQiQUhH3o6p0D45YzZzHBzT0g3C83sR7VauSnTHqxyOTNDfsEYRZWQxVEep7b22tOotPSDcdSyE0SxPVi7jXxSpKxHpvMwykYA8Gm8Jjb83MbncyTWR9rS71le4bU6xmguaeRQYnTat+sTJfMp4ViVR38Rqvka6lJOhziw9OeC0f3EKHXM04Hd/cTMPfoVDenZ3my11OJo5YjqexzTwcCPes0x2i5HcDUyMR7Vau9LGBPYWEtcLEEgjcRoK1qLdLoYhzVaqopoeSXVW8Yv+xU+K/Z2+heYJ9/Z6nRyofskf9Zv3Hrww36q9XI98Z+gnX6KZarwzBtuK1J4PSU0ZFiGAkbi7nHvJWaqX6crl6Ta0cergY3o89pQMpNVylXmA/q42tPQTdx7i1WmHstFfipnsZk0p9Hgn7KsFOKg72J+BTXTgOHzbLOkOwjY3rt2AqJVTapmzNcifh1J7RLt+VNq8u01uaVsTXPeQGtBJOwAC5VEiK5bIbBzkY1XLkhjGGcImrmlnd5R0DzWjQ0dlloIo9WxGmEqp1nldIu/y3HjBXZHGBSESCkIYFciGbp0BJRWvsQ2bBdLyEMMXmMaD0kDSe26o3u0nKp9Dp4tVE1nBEQ9S4PYEAY3lWwZyFYJgObO0O+22zXDszD1lanCJtODQ3t8l/ilDiUWjLpcSlgq0K0YFIRIKQhgVyIYFIRdsm2MopZPBZnWilPNJ1RyatPQ7QONulVWJ0msbrG5p4p+i0w2q1btW7JfBTUcJUEdVG+GZt2PFjvG4g7CDpCoI5HRuRzc0L2SNsjVa7JTE8ZcAS4OlMcmlpuY3+TI33EbQtRTVLZ2aTc96GUqqV0D7LluU5kMpY5r2mxaQQdxBuF7uaipZSM1VaqKh+gMGVjamKGZup7A7hcaR1HQsfKxY3q1dxtIno9iOTeZJj/g3waslIHNl+cbu0+MPWuesLQ0EushTimwzGJw6udV3Lt5liySaq3jF/wBih4t9nb6E3Bcn9nqdHKl+yR/1m/cevDDPqr1cj3xn6Cdfopn+LeDzV1MENtBcC/6jdLu4W6wrapk1cau/lyhpINdM1nf1G3vcGgk6ABc7gAsym1TZqqIhheFq01M00x8t5I6BfQOoWC00UegxG8DD1Emtlc/io+CMGy1kjYYW3J1nyWDa5x2BKWVsbdJwU9O+d+gw2PAeCY6GJsMfFztr3bSVnppnSu0lNjTUzKeNGN/7UqGUTGAH9CiduMpHaGe89XSp9DT/APsd2cymxit/9DO3kUQFWZnSQUrCGBXIiQUhDApCO3ifQ+EVUQI5rDnu4N1f3Zo61HqX6Ea9xYYXBrqlqbk2r2fuxrKpTbggAQBV8o2BvDKOQsF3xfOM3mw5w6230bwFYYZUamdL5LsX08SJWw6yJbZptMNBWvsZsYFIRIK5EMCkIkFIQwKQjUMQMdBIGUdY/niwikcdEm5jj5247eOugxDD9G8sabN6cOnqL2grtK0ci7dy8egu+FMHRVcboZ2BzT2tOwtOw9KqYpXxO0mLZSzlibI3Rel0MoxmxHqKLOkhBli13A+cYPTaPaNHBaGmxCOXY7Yvh2GeqsNki2t2p4llyVYX5SKSkcdMZz2dLHHSBwdp+2oOKwaL0kTfsXr/AJ5E7CZ7sWJd2XV/PM6mULApq6YvjF5IbvbbW5vltHUL/ZUfD59VLZcl2cj3xKm10V0zTbzOLkiOit4xf9ilYv8AZ2+hDwX7+z1OllT/AGSP+s37j14YX9Zer1Q98Y+gnX6KefJjgYxRvq5BzpOay+sRg6T9o9zRvXWJT6TtWm7PrOMIptBiyrmuXV+zoZQ8K+DUro2nnzcwbw3yz2aPtLxw+HTlvuTbyPbFJ9XArUzds7N/86SiYvYq1FcQ4NzItsjhoP1B5Xs6VaVFXHFszXgUVLh0s+3JOPLiapgTA0NDHycLfrOPjyHe4+7UFRTTPlddxqKemjgbosT9nDxyxsbRgwQEGYjSdYgB2n0tw6z0yqSkWRdJ3y+ZBxHEUgTQZ83l+zLnPLiSSSSbknSSTrJKurWMoqqq3UAUjkYFIQwKQiQUhDApCNJyd4N5KF07hzpTo6GN0DtNz2KorZNJ+im41mCU2rhWRc3eSFtUIugQAIAEAYPj7gH/AE+qeGttFJd8W4A+Mz7J0cC1bHDqr2iFFXNNi8+0zlZBqpNmS5FdBU6xDJBSAYFKxySCkAwK5sIm6Qi+YpZQX04bDW3fGNDZBpljHpeeO/iqeswtH/HFsXhu/Ra0mJKz4Zdqcd5p9DXRVLBJBI17Ttabjgdx6CqGSN0btF6WUu2Pa9NJq3Q8pwHT8s2pbGGSi/PZzc++gh4Gh1+kXXp7RJoatVunT6HHs8enrESy/wAzOkvA9jl4KwHFSS1MsOgTFpLPJY5udct6DnatncPeWodKxrXbt5Hip2xPc5v3bhsO4Gjr2xRyk5jZA8geXYOGaTsGnuRBO6FVVuapYKinbOiNdki36zosaGgBoAAFgBoAA1ABeCrfap7oltiHPqsC080onmjz3NFm5+ljBr0M1XvpudK9mzvazQatkPF9PG9+m5LqmV+R7Z5mRNL5HBrWjSXEBrR0k6l5NarlsmZ6ucjUuq2QoGM2P186Kh4GYj/1g+09m1W1Nh33S93Mo6zFvsh7+RQXPLiSSSSbknSSTrJKtbW2FAqqq3UkFI5JBSEMCkIkFIQwK5EdLAGDHVs8cLdRN3nzWDxj7uJC8Z5EjYriRR0y1EqMTt6jZYowxrWNFg0AADUABYBUCqqrdTdNajUREyQdIYIAEACAODjni+3CdM6LQJG86Jx2PA1HoI0Ht2KZQ1S00qO3ZL1EepgSZmjv3GCTROjc5j2lrmktc062kGxB61s2qjkRyZKZtzVatlFBTORgVyIkFIQwKQiQUhDApCPZg3Cc9I7Pp5XMd6J0O+sNThxXjLCyVLPS53HK+NbsWxd8E5TpW2bVwB/pxnNd1tOgngQqqbB2rtjdboUtIsWcmyRO4tFFj/g+W15nRk7HscLdbbjvVe/DKhu6/UpOZiNO7fbrOpHjHQu1VsHXKwHsJXgtLOn2L3Ke/tUP5p3oS/GKiGutg/8AKwnuKSUs34L3KHtUH5p3oc6rx5wfFf8ASM87mNc6/Xa3evZmH1Dvtt1ng/Eadv3X6iu4TymE3FLT29KU/gb8VMjwr/kd3cyBNjG6Nvfy/ZTcKYZqKw51RM524amN4NGgKyigjiSzEKieolmW71ueEFehHGBSEMClYRIKQhgVyIkFKwhgkKxrOJOAvAoc6QfOyWLt7Bsb7z0noVFVz6x9kyQ2GGUfs8d3fMufIsaiFkCABAAgAQAIAzrKfigZwa6mZeRo+eYNcjQPHA2uA17xw03uE1+gupkXZuXgvDqK2updNNY3PeZOCtIUliQUhDApWESCkIYFIQwK5ESCkIYFIRIKQhgUhEgpAMCuTkkFIQwKQEgpHIwKQEgrk5GBSsBIKQhgUhF6yf4tZ5bWTt5o0xNPlnzyNw2dOnZpq66pt/bb28i8wqguuukTZu58jRlUGjBAAgAQAIAEACABAGU5RMRjGX1tEzmaXSxNH6ve9g83eNnDVpMMxPStFKu3cvHoUqK2j+9nahm4KviqGBSESCuRDApCJBSEMCkIkFKwhgVyIYFIRIKVhDApCJBSsIYFIRIK5EMCkIkFIQwKQiQUhFwxKxTNWWz1DbQjUNRnI3ejvO3UOiurKxI/gZn5Fth2HLKusk+Xz/RqbGhoAAAAFgBoAG4BUSrc0yJbYhKBggAQAIAEACABAAgAQBm2PGTsSl1Tg9oDtb4Roa/pj2NPo6jsttvsPxbRtHPluXnzKyqodL4o8+Blj2FhLXNIINiCCHNI1gg6itGioqXQp1RUWykAoORgUhEgpWEMCkIkFciGBSESCkIYFIQwKQiQVyIYFKwiQUhDApCJBSEMFyFi+4oYjOkzZ61tm62xHQ5+4ybh0aztttqavEET4Is+PIuqHC1Wz5suHPkaSxoaAAAABYAaABuAVKq3L9EtsQlAwQAIAEACABAAgAQAIAEACAK5jVibTYTBc8ZktrNlaOd0B48sd+4hT6PEJaZbJtbw5cCNPSsmTbnxMgxjxTq8GkmaPOj2SsuYjuufJPQeq609LXQ1CfCu3guf7KWelkizy4nEBUsjEgpHIwKVgJBSEMClY5JBSAYFciJBSEMCkIkFKwhgUhDArkR08CYCqa92bTxkja86ImcXe4aehR56iOFLvXs3nvBSyTrZidu41LFjEyChzZH/ADkw8sjmsPoN2cTp4Khqa582xNifzM0FJh8cHxLtdx5FnUEsAQAIAEACABAAgAQAIAEACABAAgAQBDmhwIIuDrB0g8U0W21AKZh/JvR1V3wXgefMF4SemM6vskK1p8Ymj2P+JOnPv53IM1BG/amxTP8ADGIGEKW5EXLMHlRc49bPG7AeKuoMUp5c1svTzyK2WhlZkl+orEjCwlrmkEawQQ4cQVYIqKl0IatVNigCg5GBXIiQUhDApCJBSEMCkIZumwGs6t5XKitcsOCcTa6qsWwFjT5cvMb2HnHqChTV8Eebrr0bf0TIqCeTdbr2F5wJk4p4bOqnmZ3m+LEOoaXdZt0KpnxWR+yNLJ4lpBhUbNr9q+BdIYmxtDGNDWjQGtADQOgDUqtXK5bqWaIjUsg6QwQAIAEACABAAgAQAIAEACABAAgAQAIAEACABAHlrsGwVIzZ4I5B6bGutwuNC9I5pI1uxyp1KcuY13zJcrlZk5wbLctidGTtje72OuB2KczFqlua360IrqCF26xyJ8lEB/V1cg+s1rvZmqU3HJPuYnlzPBcLZucp43ZJnbK8dcJ/OvT34n4eP6PL3V/9eH7BuSd+2ub1Qk/jQuNp+Hj+g91f/Xh+z2U+SqIfrKx5+qxrfaSvJ2NP+1id/wD0dtwpm9ynWo8nOD4/HZJJ9eQjuZmqM/Fqh2SonUnO57Nw2BM0v2lhoMEU1N+op42dLWgOPF2sqFJPJJ87lUlsiYz5URD2ryPQEACABAAgAQAIAEACABAAgAQAIAEACABAAgAQAIAEACABAAgAQAIAEACABAAgAQAIAEACABAAgAQAIAEACABAH//Z;fillColor=#182E3E;strokeColor=#FFFFFF;fontColor=#FFFFFF;" vertex="1" parent="1">
          <mxGeometry x="630" y="189" width="85" height="85" as="geometry" />
        </mxCell>
        <mxCell id="TPXWJFAmSgLl3qk7VcIr-8" value="&lt;span style=&quot;font-size: 14px;&quot;&gt;&lt;b&gt;Code&lt;/b&gt;&lt;/span&gt;" style="text;strokeColor=none;align=center;fillColor=none;html=1;verticalAlign=middle;whiteSpace=wrap;rounded=0;labelBackgroundColor=none;fontColor=#FFFFFF;" vertex="1" parent="1">
          <mxGeometry x="50" y="277" width="60" height="30" as="geometry" />
        </mxCell>
        <mxCell id="TPXWJFAmSgLl3qk7VcIr-9" value="&lt;b&gt;&lt;font style=&quot;font-size: 14px;&quot;&gt;terraform&lt;/font&gt;&lt;/b&gt;" style="text;strokeColor=none;align=center;fillColor=none;html=1;verticalAlign=middle;whiteSpace=wrap;rounded=0;labelBackgroundColor=none;fontColor=#FFFFFF;" vertex="1" parent="1">
          <mxGeometry x="195" y="277" width="60" height="30" as="geometry" />
        </mxCell>
        <mxCell id="TPXWJFAmSgLl3qk7VcIr-10" value="&lt;b&gt;&lt;font style=&quot;font-size: 14px;&quot;&gt;statefile.tf&lt;/font&gt;&lt;/b&gt;" style="text;strokeColor=none;align=center;fillColor=none;html=1;verticalAlign=middle;whiteSpace=wrap;rounded=0;labelBackgroundColor=none;fontColor=#FFFFFF;" vertex="1" parent="1">
          <mxGeometry x="345" y="274" width="60" height="30" as="geometry" />
        </mxCell>
        <mxCell id="TPXWJFAmSgLl3qk7VcIr-11" value="&lt;b&gt;&lt;font style=&quot;font-size: 14px;&quot;&gt;s3-bucket&lt;/font&gt;&lt;/b&gt;" style="text;strokeColor=none;align=center;fillColor=none;html=1;verticalAlign=middle;whiteSpace=wrap;rounded=0;labelBackgroundColor=none;fontColor=#FFFFFF;" vertex="1" parent="1">
          <mxGeometry x="470" y="277" width="70" height="30" as="geometry" />
        </mxCell>
        <mxCell id="TPXWJFAmSgLl3qk7VcIr-12" value="&lt;b&gt;&lt;font style=&quot;font-size: 14px;&quot;&gt;P&lt;/font&gt;&lt;/b&gt;&lt;b style=&quot;background-color: initial;&quot;&gt;&lt;font style=&quot;font-size: 14px;&quot;&gt;ublic&amp;nbsp;&lt;/font&gt;&lt;/b&gt;&lt;b style=&quot;background-color: initial;&quot;&gt;&lt;font style=&quot;font-size: 14px;&quot;&gt;Static&lt;/font&gt;&lt;/b&gt;&lt;div&gt;&lt;div&gt;&lt;b&gt;&lt;font style=&quot;font-size: 14px;&quot;&gt;Host&lt;/font&gt;&lt;/b&gt;&lt;/div&gt;&lt;/div&gt;" style="text;strokeColor=none;align=center;fillColor=none;html=1;verticalAlign=middle;whiteSpace=wrap;rounded=0;labelBackgroundColor=none;fontColor=#FFFFFF;" vertex="1" parent="1">
          <mxGeometry x="608.75" y="286" width="127.5" height="30" as="geometry" />
        </mxCell>
        <mxCell id="TPXWJFAmSgLl3qk7VcIr-19" value="&lt;h1&gt;&lt;font color=&quot;#000000&quot; style=&quot;background-color: rgb(255, 255, 255);&quot; face=&quot;Times New Roman&quot;&gt;&lt;u&gt;Static-webhost Using Terraform&lt;/u&gt;&lt;/font&gt;&lt;/h1&gt;" style="text;strokeColor=none;align=center;fillColor=none;html=1;verticalAlign=middle;whiteSpace=wrap;rounded=0;labelBackgroundColor=none;fontColor=#FFFFFF;" vertex="1" parent="1">
          <mxGeometry x="170" y="130" width="405" height="30" as="geometry" />
        </mxCell>
        <mxCell id="TPXWJFAmSgLl3qk7VcIr-27" value="&lt;h3&gt;&lt;b&gt;&lt;font face=&quot;Comic Sans MS&quot;&gt;Sivaranjan&lt;/font&gt;&lt;/b&gt;&lt;/h3&gt;" style="text;strokeColor=none;align=center;fillColor=none;html=1;verticalAlign=middle;whiteSpace=wrap;rounded=0;fontColor=#FFFFFF;" vertex="1" parent="1">
          <mxGeometry x="347.5" y="370" width="60" height="30" as="geometry" />
        </mxCell>
      </root>
    </mxGraphModel>
  </diagram>
</mxfile>
